<mxfile host="Electron" modified="2023-08-04T15:45:17.429Z" agent="Mozilla/5.0 (Windows NT 10.0; Win64; x64) AppleWebKit/537.36 (KHTML, like Gecko) draw.io/21.6.5 Chrome/114.0.5735.243 Electron/25.3.1 Safari/537.36" etag="85NRcvFau85YzJYM_AP2" version="21.6.5" type="device">
  <diagram id="tQFxVSbKKZQ5qEw0nlMO" name="Página-1">
    <mxGraphModel dx="880" dy="532" grid="1" gridSize="10" guides="1" tooltips="1" connect="1" arrows="1" fold="1" page="1" pageScale="1" pageWidth="827" pageHeight="1169" math="0" shadow="0">
      <root>
        <mxCell id="0" />
        <mxCell id="1" parent="0" />
        <mxCell id="YxqezjpBidYLE9lboMc1-1" value="UC - 001&lt;br&gt;Cadastrar cliente" style="ellipse;whiteSpace=wrap;html=1;fillColor=#ffff88;strokeColor=#36393d;" parent="1" vertex="1">
          <mxGeometry x="440" y="77" width="150" height="100" as="geometry" />
        </mxCell>
        <mxCell id="YxqezjpBidYLE9lboMc1-5" value="Recepcionista" style="shape=umlActor;verticalLabelPosition=bottom;verticalAlign=top;html=1;outlineConnect=0;" parent="1" vertex="1">
          <mxGeometry x="40" y="260" width="50" height="90" as="geometry" />
        </mxCell>
        <mxCell id="YxqezjpBidYLE9lboMc1-6" value="" style="endArrow=none;html=1;entryX=0.007;entryY=0.63;entryDx=0;entryDy=0;entryPerimeter=0;exitX=1;exitY=0.3333333333333333;exitDx=0;exitDy=0;exitPerimeter=0;" parent="1" source="YxqezjpBidYLE9lboMc1-5" target="YxqezjpBidYLE9lboMc1-1" edge="1">
          <mxGeometry width="50" height="50" relative="1" as="geometry">
            <mxPoint x="250" y="220" as="sourcePoint" />
            <mxPoint x="440" y="140" as="targetPoint" />
          </mxGeometry>
        </mxCell>
        <mxCell id="YxqezjpBidYLE9lboMc1-10" value="&lt;font style=&quot;font-size: 15px&quot;&gt;&lt;b&gt;Genesys PetShop&lt;/b&gt;&lt;/font&gt;" style="text;html=1;strokeColor=none;fillColor=none;align=center;verticalAlign=middle;whiteSpace=wrap;rounded=0;" parent="1" vertex="1">
          <mxGeometry x="380" y="30" width="440" height="20" as="geometry" />
        </mxCell>
        <mxCell id="YxqezjpBidYLE9lboMc1-11" style="edgeStyle=orthogonalEdgeStyle;rounded=0;orthogonalLoop=1;jettySize=auto;html=1;entryX=1;entryY=0.5;entryDx=0;entryDy=0;endArrow=open;endFill=0;dashed=1;" parent="1" source="YxqezjpBidYLE9lboMc1-12" target="YxqezjpBidYLE9lboMc1-1" edge="1">
          <mxGeometry relative="1" as="geometry" />
        </mxCell>
        <mxCell id="YxqezjpBidYLE9lboMc1-12" value="UC - 002&lt;br&gt;Pesquisar cliente" style="ellipse;whiteSpace=wrap;html=1;fillColor=#f8cecc;strokeColor=#b85450;" parent="1" vertex="1">
          <mxGeometry x="677" y="77" width="150" height="100" as="geometry" />
        </mxCell>
        <mxCell id="YxqezjpBidYLE9lboMc1-13" style="edgeStyle=orthogonalEdgeStyle;rounded=0;orthogonalLoop=1;jettySize=auto;html=1;entryX=1;entryY=0.5;entryDx=0;entryDy=0;endArrow=none;endFill=0;" parent="1" edge="1">
          <mxGeometry relative="1" as="geometry">
            <mxPoint x="470" y="357" as="targetPoint" />
          </mxGeometry>
        </mxCell>
        <mxCell id="YxqezjpBidYLE9lboMc1-15" value="&lt;div style=&quot;text-align: left&quot;&gt;&lt;span&gt;Autor: Salomão Francisco da Silva&lt;/span&gt;&lt;/div&gt;&lt;div style=&quot;text-align: left&quot;&gt;&lt;span&gt;Data : 25/07/2022&lt;/span&gt;&lt;/div&gt;&lt;div style=&quot;text-align: left&quot;&gt;Revisão: 04/03/2023&lt;/div&gt;" style="text;html=1;align=center;verticalAlign=middle;resizable=0;points=[];autosize=1;fillColor=#dae8fc;strokeColor=#6c8ebf;" parent="1" vertex="1">
          <mxGeometry x="441.5" y="1920" width="210" height="60" as="geometry" />
        </mxCell>
        <mxCell id="YxqezjpBidYLE9lboMc1-24" style="edgeStyle=orthogonalEdgeStyle;rounded=0;orthogonalLoop=1;jettySize=auto;html=1;entryX=0;entryY=0.5;entryDx=0;entryDy=0;endArrow=none;endFill=0;" parent="1" edge="1">
          <mxGeometry relative="1" as="geometry">
            <mxPoint x="470" y="803" as="sourcePoint" />
          </mxGeometry>
        </mxCell>
        <mxCell id="YxqezjpBidYLE9lboMc1-28" style="edgeStyle=orthogonalEdgeStyle;rounded=0;orthogonalLoop=1;jettySize=auto;html=1;entryX=0;entryY=0.5;entryDx=0;entryDy=0;endArrow=none;endFill=0;" parent="1" edge="1">
          <mxGeometry relative="1" as="geometry">
            <mxPoint x="470" y="917" as="sourcePoint" />
          </mxGeometry>
        </mxCell>
        <mxCell id="YxqezjpBidYLE9lboMc1-34" value="UC - 003&lt;br&gt;Cadastrar animal" style="ellipse;whiteSpace=wrap;html=1;fillColor=#ffff88;strokeColor=#36393d;" parent="1" vertex="1">
          <mxGeometry x="440" y="210" width="150" height="100" as="geometry" />
        </mxCell>
        <mxCell id="YxqezjpBidYLE9lboMc1-35" value="UC - 004&lt;br&gt;Pesquisar animal" style="ellipse;whiteSpace=wrap;html=1;fillColor=#f8cecc;strokeColor=#b85450;" parent="1" vertex="1">
          <mxGeometry x="677" y="210" width="150" height="100" as="geometry" />
        </mxCell>
        <mxCell id="YxqezjpBidYLE9lboMc1-36" style="edgeStyle=orthogonalEdgeStyle;rounded=0;orthogonalLoop=1;jettySize=auto;html=1;entryX=1;entryY=0.5;entryDx=0;entryDy=0;endArrow=open;endFill=0;dashed=1;" parent="1" source="YxqezjpBidYLE9lboMc1-35" target="YxqezjpBidYLE9lboMc1-34" edge="1">
          <mxGeometry relative="1" as="geometry" />
        </mxCell>
        <mxCell id="YxqezjpBidYLE9lboMc1-37" value="" style="endArrow=none;html=1;entryX=0;entryY=0.5;entryDx=0;entryDy=0;exitX=1;exitY=0.3333333333333333;exitDx=0;exitDy=0;exitPerimeter=0;" parent="1" source="YxqezjpBidYLE9lboMc1-5" target="YxqezjpBidYLE9lboMc1-34" edge="1">
          <mxGeometry width="50" height="50" relative="1" as="geometry">
            <mxPoint x="250" y="220" as="sourcePoint" />
            <mxPoint x="440" y="277" as="targetPoint" />
          </mxGeometry>
        </mxCell>
        <mxCell id="Cub7JUL8dpiAMN9NoVPt-1" value="UC - 005&lt;br&gt;Cadastrar agenda" style="ellipse;whiteSpace=wrap;html=1;fillColor=#ffff88;strokeColor=#36393d;" parent="1" vertex="1">
          <mxGeometry x="440" y="340" width="150" height="100" as="geometry" />
        </mxCell>
        <mxCell id="Cub7JUL8dpiAMN9NoVPt-2" value="UC - 006&lt;br&gt;Pesquisar agenda" style="ellipse;whiteSpace=wrap;html=1;fillColor=#f8cecc;strokeColor=#b85450;" parent="1" vertex="1">
          <mxGeometry x="677" y="340" width="150" height="100" as="geometry" />
        </mxCell>
        <mxCell id="Cub7JUL8dpiAMN9NoVPt-3" style="edgeStyle=orthogonalEdgeStyle;rounded=0;orthogonalLoop=1;jettySize=auto;html=1;entryX=1;entryY=0.5;entryDx=0;entryDy=0;endArrow=open;endFill=0;dashed=1;" parent="1" source="Cub7JUL8dpiAMN9NoVPt-2" target="Cub7JUL8dpiAMN9NoVPt-1" edge="1">
          <mxGeometry relative="1" as="geometry" />
        </mxCell>
        <mxCell id="Cub7JUL8dpiAMN9NoVPt-4" value="" style="endArrow=none;html=1;entryX=0;entryY=0.5;entryDx=0;entryDy=0;exitX=1;exitY=0.3333333333333333;exitDx=0;exitDy=0;exitPerimeter=0;" parent="1" source="YxqezjpBidYLE9lboMc1-5" target="Cub7JUL8dpiAMN9NoVPt-1" edge="1">
          <mxGeometry width="50" height="50" relative="1" as="geometry">
            <mxPoint x="250" y="220" as="sourcePoint" />
            <mxPoint x="450" y="270" as="targetPoint" />
          </mxGeometry>
        </mxCell>
        <mxCell id="JPexp3qtp5KdY5VzEhq1-1" value="UC - 007&lt;br&gt;Cadastrar venda" style="ellipse;whiteSpace=wrap;html=1;fillColor=#ffff88;strokeColor=#36393d;" parent="1" vertex="1">
          <mxGeometry x="440" y="475" width="150" height="100" as="geometry" />
        </mxCell>
        <mxCell id="657BVYcHnYqltQ0i0XoH-2" style="edgeStyle=orthogonalEdgeStyle;rounded=0;orthogonalLoop=1;jettySize=auto;html=1;entryX=1;entryY=0.5;entryDx=0;entryDy=0;dashed=1;endArrow=open;endFill=0;" parent="1" source="JPexp3qtp5KdY5VzEhq1-2" target="JPexp3qtp5KdY5VzEhq1-1" edge="1">
          <mxGeometry relative="1" as="geometry" />
        </mxCell>
        <mxCell id="JPexp3qtp5KdY5VzEhq1-2" value="UC - 008&lt;br&gt;Pesquisar venda" style="ellipse;whiteSpace=wrap;html=1;fillColor=#f8cecc;strokeColor=#b85450;" parent="1" vertex="1">
          <mxGeometry x="677" y="475" width="150" height="100" as="geometry" />
        </mxCell>
        <mxCell id="JPexp3qtp5KdY5VzEhq1-4" value="" style="endArrow=none;html=1;rounded=0;exitX=0;exitY=0.55;exitDx=0;exitDy=0;exitPerimeter=0;entryX=1;entryY=0.3333333333333333;entryDx=0;entryDy=0;entryPerimeter=0;" parent="1" source="JPexp3qtp5KdY5VzEhq1-1" target="YxqezjpBidYLE9lboMc1-5" edge="1">
          <mxGeometry width="50" height="50" relative="1" as="geometry">
            <mxPoint x="320" y="350" as="sourcePoint" />
            <mxPoint x="250" y="220" as="targetPoint" />
          </mxGeometry>
        </mxCell>
        <mxCell id="402y7jPxNAECp9g6GM-7-3" value="" style="endArrow=none;html=1;rounded=0;exitX=0;exitY=0.55;exitDx=0;exitDy=0;exitPerimeter=0;entryX=1;entryY=0.3333333333333333;entryDx=0;entryDy=0;entryPerimeter=0;" parent="1" source="402y7jPxNAECp9g6GM-7-4" target="YxqezjpBidYLE9lboMc1-5" edge="1">
          <mxGeometry width="50" height="50" relative="1" as="geometry">
            <mxPoint x="320" y="477.5" as="sourcePoint" />
            <mxPoint x="250" y="220" as="targetPoint" />
          </mxGeometry>
        </mxCell>
        <mxCell id="402y7jPxNAECp9g6GM-7-4" value="UC-012 &lt;br&gt;Cadastrar vacina" style="ellipse;whiteSpace=wrap;html=1;fillColor=#ffff88;strokeColor=#36393d;" parent="1" vertex="1">
          <mxGeometry x="440" y="1090" width="150" height="100" as="geometry" />
        </mxCell>
        <mxCell id="657BVYcHnYqltQ0i0XoH-7" style="edgeStyle=orthogonalEdgeStyle;rounded=0;orthogonalLoop=1;jettySize=auto;html=1;entryX=1;entryY=0.5;entryDx=0;entryDy=0;dashed=1;endArrow=open;endFill=0;" parent="1" edge="1">
          <mxGeometry relative="1" as="geometry">
            <mxPoint x="720" y="1141" as="sourcePoint" />
            <mxPoint x="590" y="1141" as="targetPoint" />
          </mxGeometry>
        </mxCell>
        <mxCell id="402y7jPxNAECp9g6GM-7-6" value="UC-013 &lt;br&gt;Pesquisar vacina" style="ellipse;whiteSpace=wrap;html=1;fillColor=#f8cecc;strokeColor=#b85450;" parent="1" vertex="1">
          <mxGeometry x="677" y="1090" width="150" height="100" as="geometry" />
        </mxCell>
        <mxCell id="657BVYcHnYqltQ0i0XoH-22" style="edgeStyle=orthogonalEdgeStyle;rounded=0;orthogonalLoop=1;jettySize=auto;html=1;entryX=0.5;entryY=1;entryDx=0;entryDy=0;endArrow=open;endFill=0;dashed=1;" parent="1" source="NOYukPaWQ7m34npIKvg9-1" target="JPexp3qtp5KdY5VzEhq1-1" edge="1">
          <mxGeometry relative="1" as="geometry" />
        </mxCell>
        <mxCell id="NOYukPaWQ7m34npIKvg9-1" value="UC 014 -&amp;nbsp;Gerar comprovante de venda em PDF" style="ellipse;whiteSpace=wrap;html=1;fillColor=#e1d5e7;strokeColor=#9673a6;" parent="1" vertex="1">
          <mxGeometry x="430" y="630" width="170" height="140" as="geometry" />
        </mxCell>
        <mxCell id="NOYukPaWQ7m34npIKvg9-2" value="" style="endArrow=none;html=1;rounded=0;exitX=0.047;exitY=0.293;exitDx=0;exitDy=0;exitPerimeter=0;entryX=1;entryY=0.3333333333333333;entryDx=0;entryDy=0;entryPerimeter=0;" parent="1" source="NOYukPaWQ7m34npIKvg9-1" target="YxqezjpBidYLE9lboMc1-5" edge="1">
          <mxGeometry width="50" height="50" relative="1" as="geometry">
            <mxPoint x="390" y="460" as="sourcePoint" />
            <mxPoint x="250" y="220" as="targetPoint" />
          </mxGeometry>
        </mxCell>
        <mxCell id="NOYukPaWQ7m34npIKvg9-5" value="&amp;lt;&amp;lt;extend&amp;gt;&amp;gt;" style="text;html=1;align=center;verticalAlign=middle;resizable=0;points=[];autosize=1;" parent="1" vertex="1">
          <mxGeometry x="521" y="600" width="80" height="20" as="geometry" />
        </mxCell>
        <mxCell id="657BVYcHnYqltQ0i0XoH-3" value="&amp;lt;&amp;lt;extend&amp;gt;&amp;gt;" style="text;html=1;align=center;verticalAlign=middle;resizable=0;points=[];autosize=1;strokeColor=none;fillColor=none;" parent="1" vertex="1">
          <mxGeometry x="595" y="133" width="80" height="20" as="geometry" />
        </mxCell>
        <mxCell id="657BVYcHnYqltQ0i0XoH-4" value="&amp;lt;&amp;lt;extend&amp;gt;&amp;gt;" style="text;html=1;align=center;verticalAlign=middle;resizable=0;points=[];autosize=1;strokeColor=none;fillColor=none;" parent="1" vertex="1">
          <mxGeometry x="595" y="266" width="80" height="20" as="geometry" />
        </mxCell>
        <mxCell id="657BVYcHnYqltQ0i0XoH-5" value="&amp;lt;&amp;lt;extend&amp;gt;&amp;gt;" style="text;html=1;align=center;verticalAlign=middle;resizable=0;points=[];autosize=1;strokeColor=none;fillColor=none;" parent="1" vertex="1">
          <mxGeometry x="595" y="396" width="80" height="20" as="geometry" />
        </mxCell>
        <mxCell id="657BVYcHnYqltQ0i0XoH-6" value="&amp;lt;&amp;lt;extend&amp;gt;&amp;gt;" style="text;html=1;align=center;verticalAlign=middle;resizable=0;points=[];autosize=1;strokeColor=none;fillColor=none;" parent="1" vertex="1">
          <mxGeometry x="595" y="532" width="80" height="20" as="geometry" />
        </mxCell>
        <mxCell id="657BVYcHnYqltQ0i0XoH-8" value="&amp;lt;&amp;lt;extend&amp;gt;&amp;gt;" style="text;html=1;align=center;verticalAlign=middle;resizable=0;points=[];autosize=1;strokeColor=none;fillColor=none;" parent="1" vertex="1">
          <mxGeometry x="595" y="1147" width="80" height="20" as="geometry" />
        </mxCell>
        <mxCell id="657BVYcHnYqltQ0i0XoH-9" value="UC-015 Cadastrar fornecedor" style="ellipse;whiteSpace=wrap;html=1;fillColor=#ffff88;strokeColor=#36393d;" parent="1" vertex="1">
          <mxGeometry x="440" y="1227" width="150" height="100" as="geometry" />
        </mxCell>
        <mxCell id="657BVYcHnYqltQ0i0XoH-10" style="edgeStyle=orthogonalEdgeStyle;rounded=0;orthogonalLoop=1;jettySize=auto;html=1;entryX=1;entryY=0.5;entryDx=0;entryDy=0;dashed=1;endArrow=open;endFill=0;" parent="1" source="657BVYcHnYqltQ0i0XoH-11" target="657BVYcHnYqltQ0i0XoH-9" edge="1">
          <mxGeometry relative="1" as="geometry" />
        </mxCell>
        <mxCell id="657BVYcHnYqltQ0i0XoH-11" value="UC-016 Pesquisar fornecedor" style="ellipse;whiteSpace=wrap;html=1;fillColor=#f8cecc;strokeColor=#b85450;" parent="1" vertex="1">
          <mxGeometry x="677" y="1227" width="150" height="100" as="geometry" />
        </mxCell>
        <mxCell id="657BVYcHnYqltQ0i0XoH-12" value="&amp;lt;&amp;lt;extend&amp;gt;&amp;gt;" style="text;html=1;align=center;verticalAlign=middle;resizable=0;points=[];autosize=1;strokeColor=none;fillColor=none;" parent="1" vertex="1">
          <mxGeometry x="595" y="1283" width="80" height="20" as="geometry" />
        </mxCell>
        <mxCell id="657BVYcHnYqltQ0i0XoH-13" value="" style="endArrow=none;html=1;rounded=0;entryX=1;entryY=0.3333333333333333;entryDx=0;entryDy=0;entryPerimeter=0;exitX=0.033;exitY=0.32;exitDx=0;exitDy=0;exitPerimeter=0;" parent="1" source="657BVYcHnYqltQ0i0XoH-9" target="YxqezjpBidYLE9lboMc1-5" edge="1">
          <mxGeometry width="50" height="50" relative="1" as="geometry">
            <mxPoint x="450" y="1000" as="sourcePoint" />
            <mxPoint x="250" y="220" as="targetPoint" />
          </mxGeometry>
        </mxCell>
        <mxCell id="657BVYcHnYqltQ0i0XoH-14" value="UC-017 Cadastrar financeiro" style="ellipse;whiteSpace=wrap;html=1;fillColor=#ffff88;strokeColor=#36393d;" parent="1" vertex="1">
          <mxGeometry x="440" y="1360" width="150" height="100" as="geometry" />
        </mxCell>
        <mxCell id="657BVYcHnYqltQ0i0XoH-15" style="edgeStyle=orthogonalEdgeStyle;rounded=0;orthogonalLoop=1;jettySize=auto;html=1;entryX=1;entryY=0.5;entryDx=0;entryDy=0;dashed=1;endArrow=open;endFill=0;" parent="1" source="657BVYcHnYqltQ0i0XoH-16" target="657BVYcHnYqltQ0i0XoH-14" edge="1">
          <mxGeometry relative="1" as="geometry" />
        </mxCell>
        <mxCell id="657BVYcHnYqltQ0i0XoH-16" value="UC-018 Pesquisar financeiro" style="ellipse;whiteSpace=wrap;html=1;fillColor=#f8cecc;strokeColor=#b85450;" parent="1" vertex="1">
          <mxGeometry x="677" y="1360" width="150" height="100" as="geometry" />
        </mxCell>
        <mxCell id="657BVYcHnYqltQ0i0XoH-17" value="&amp;lt;&amp;lt;extend&amp;gt;&amp;gt;" style="text;html=1;align=center;verticalAlign=middle;resizable=0;points=[];autosize=1;strokeColor=none;fillColor=none;" parent="1" vertex="1">
          <mxGeometry x="595" y="1416" width="80" height="20" as="geometry" />
        </mxCell>
        <mxCell id="657BVYcHnYqltQ0i0XoH-18" value="" style="endArrow=none;html=1;rounded=0;exitX=0.013;exitY=0.4;exitDx=0;exitDy=0;exitPerimeter=0;" parent="1" source="657BVYcHnYqltQ0i0XoH-14" edge="1">
          <mxGeometry width="50" height="50" relative="1" as="geometry">
            <mxPoint x="510" y="1150" as="sourcePoint" />
            <mxPoint x="90" y="290" as="targetPoint" />
          </mxGeometry>
        </mxCell>
        <mxCell id="657BVYcHnYqltQ0i0XoH-20" value="" style="endArrow=none;html=1;rounded=0;exitX=0.007;exitY=0.44;exitDx=0;exitDy=0;exitPerimeter=0;" parent="1" source="657BVYcHnYqltQ0i0XoH-21" edge="1">
          <mxGeometry width="50" height="50" relative="1" as="geometry">
            <mxPoint x="450.04999999999995" y="1350" as="sourcePoint" />
            <mxPoint x="90" y="290" as="targetPoint" />
          </mxGeometry>
        </mxCell>
        <mxCell id="657BVYcHnYqltQ0i0XoH-21" value="UC-019 &lt;br&gt;Notificações" style="ellipse;whiteSpace=wrap;html=1;fillColor=#ffff88;strokeColor=#36393d;" parent="1" vertex="1">
          <mxGeometry x="440" y="1491" width="150" height="100" as="geometry" />
        </mxCell>
        <mxCell id="HaS_QrncKNHMMceU__iD-1" value="UC-009 &lt;br&gt;Cadastrar produto" style="ellipse;whiteSpace=wrap;html=1;fillColor=#ffff88;strokeColor=#36393d;" parent="1" vertex="1">
          <mxGeometry x="440" y="800" width="150" height="100" as="geometry" />
        </mxCell>
        <mxCell id="HaS_QrncKNHMMceU__iD-3" style="edgeStyle=orthogonalEdgeStyle;rounded=0;orthogonalLoop=1;jettySize=auto;html=1;entryX=1;entryY=0.5;entryDx=0;entryDy=0;dashed=1;endArrow=open;endFill=0;" parent="1" source="HaS_QrncKNHMMceU__iD-2" target="HaS_QrncKNHMMceU__iD-1" edge="1">
          <mxGeometry relative="1" as="geometry" />
        </mxCell>
        <mxCell id="HaS_QrncKNHMMceU__iD-2" value="UC-010 &lt;br&gt;Pesquisar produto" style="ellipse;whiteSpace=wrap;html=1;fillColor=#f8cecc;strokeColor=#b85450;" parent="1" vertex="1">
          <mxGeometry x="677" y="800" width="150" height="100" as="geometry" />
        </mxCell>
        <mxCell id="HaS_QrncKNHMMceU__iD-4" value="UC-011 &lt;br&gt;Cadastrar empresa" style="ellipse;whiteSpace=wrap;html=1;fillColor=#ffff88;strokeColor=#36393d;" parent="1" vertex="1">
          <mxGeometry x="445" y="950" width="150" height="100" as="geometry" />
        </mxCell>
        <mxCell id="HaS_QrncKNHMMceU__iD-7" value="&amp;lt;&amp;lt;extend&amp;gt;&amp;gt;" style="text;html=1;align=center;verticalAlign=middle;resizable=0;points=[];autosize=1;strokeColor=none;fillColor=none;" parent="1" vertex="1">
          <mxGeometry x="595" y="858" width="80" height="20" as="geometry" />
        </mxCell>
        <mxCell id="HaS_QrncKNHMMceU__iD-9" value="" style="endArrow=none;html=1;rounded=0;exitX=0.007;exitY=0.36;exitDx=0;exitDy=0;exitPerimeter=0;" parent="1" source="HaS_QrncKNHMMceU__iD-1" edge="1">
          <mxGeometry width="50" height="50" relative="1" as="geometry">
            <mxPoint x="560" y="830" as="sourcePoint" />
            <mxPoint x="90" y="290" as="targetPoint" />
          </mxGeometry>
        </mxCell>
        <mxCell id="HaS_QrncKNHMMceU__iD-10" value="" style="endArrow=none;html=1;rounded=0;exitX=-0.007;exitY=0.37;exitDx=0;exitDy=0;exitPerimeter=0;" parent="1" source="HaS_QrncKNHMMceU__iD-4" edge="1">
          <mxGeometry width="50" height="50" relative="1" as="geometry">
            <mxPoint x="450" y="980" as="sourcePoint" />
            <mxPoint x="90" y="290" as="targetPoint" />
          </mxGeometry>
        </mxCell>
        <mxCell id="_2r__GrE4IwwcdhMYCFK-1" value="UC-020 Cadastrar &lt;br&gt;serviço" style="ellipse;whiteSpace=wrap;html=1;fillColor=#ffff88;strokeColor=#36393d;" parent="1" vertex="1">
          <mxGeometry x="441.5" y="1630" width="150" height="100" as="geometry" />
        </mxCell>
        <mxCell id="_2r__GrE4IwwcdhMYCFK-3" style="edgeStyle=orthogonalEdgeStyle;rounded=0;orthogonalLoop=1;jettySize=auto;html=1;entryX=1;entryY=0.5;entryDx=0;entryDy=0;endArrow=open;endFill=0;dashed=1;" parent="1" source="_2r__GrE4IwwcdhMYCFK-2" target="_2r__GrE4IwwcdhMYCFK-1" edge="1">
          <mxGeometry relative="1" as="geometry" />
        </mxCell>
        <mxCell id="_2r__GrE4IwwcdhMYCFK-2" value="UC-021 Pesquisar &lt;br&gt;serviço" style="ellipse;whiteSpace=wrap;html=1;fillColor=#f8cecc;strokeColor=#b85450;" parent="1" vertex="1">
          <mxGeometry x="678.5" y="1630" width="150" height="100" as="geometry" />
        </mxCell>
        <mxCell id="_2r__GrE4IwwcdhMYCFK-4" value="&amp;lt;&amp;lt;extend&amp;gt;&amp;gt;" style="text;html=1;align=center;verticalAlign=middle;resizable=0;points=[];autosize=1;strokeColor=none;fillColor=none;" parent="1" vertex="1">
          <mxGeometry x="590" y="1685" width="90" height="30" as="geometry" />
        </mxCell>
        <mxCell id="_2r__GrE4IwwcdhMYCFK-5" value="" style="endArrow=none;html=1;rounded=0;exitX=0.046;exitY=0.295;exitDx=0;exitDy=0;exitPerimeter=0;" parent="1" source="_2r__GrE4IwwcdhMYCFK-1" edge="1">
          <mxGeometry width="50" height="50" relative="1" as="geometry">
            <mxPoint x="440" y="1670" as="sourcePoint" />
            <mxPoint x="90" y="290" as="targetPoint" />
          </mxGeometry>
        </mxCell>
        <mxCell id="op462CXehhHtRIn_OU8Q-1" value="UC-022 Configurar conexão remota" style="ellipse;whiteSpace=wrap;html=1;fillColor=#ffff88;strokeColor=#36393d;" parent="1" vertex="1">
          <mxGeometry x="441.5" y="1780" width="150" height="100" as="geometry" />
        </mxCell>
        <mxCell id="op462CXehhHtRIn_OU8Q-2" value="" style="endArrow=none;html=1;rounded=0;exitX=0;exitY=0.5;exitDx=0;exitDy=0;" parent="1" source="op462CXehhHtRIn_OU8Q-1" edge="1">
          <mxGeometry width="50" height="50" relative="1" as="geometry">
            <mxPoint x="458" y="1670" as="sourcePoint" />
            <mxPoint x="90" y="290" as="targetPoint" />
          </mxGeometry>
        </mxCell>
      </root>
    </mxGraphModel>
  </diagram>
</mxfile>
